<mxfile host="Electron" agent="Mozilla/5.0 (X11; Linux x86_64) AppleWebKit/537.36 (KHTML, like Gecko) draw.io/26.0.4 Chrome/128.0.6613.186 Electron/32.2.5 Safari/537.36" version="26.0.4">
  <diagram id="C5RBs43oDa-KdzZeNtuy" name="Page-1">
    <mxGraphModel dx="2955" dy="1502" grid="0" gridSize="10" guides="1" tooltips="1" connect="1" arrows="1" fold="1" page="1" pageScale="1" pageWidth="827" pageHeight="1169" math="0" shadow="0">
      <root>
        <mxCell id="WIyWlLk6GJQsqaUBKTNV-0" />
        <mxCell id="WIyWlLk6GJQsqaUBKTNV-1" parent="WIyWlLk6GJQsqaUBKTNV-0" />
        <mxCell id="gZTQ3Ob3cSbscoctW0sQ-0" value="S = [7, 12, 14, 15]" style="text;html=1;align=center;verticalAlign=middle;whiteSpace=wrap;rounded=0;fontSize=20;" vertex="1" parent="WIyWlLk6GJQsqaUBKTNV-1">
          <mxGeometry x="74" y="125" width="190" height="30" as="geometry" />
        </mxCell>
        <mxCell id="gZTQ3Ob3cSbscoctW0sQ-1" value="B = [1, 2, 3, 4, 9, 11]" style="text;html=1;align=center;verticalAlign=middle;whiteSpace=wrap;rounded=0;fontSize=20;" vertex="1" parent="WIyWlLk6GJQsqaUBKTNV-1">
          <mxGeometry x="84" y="155" width="190" height="30" as="geometry" />
        </mxCell>
        <mxCell id="gZTQ3Ob3cSbscoctW0sQ-2" value="M = [1, 2, 3, 4, 7, 9, 11, 12, 14, 15]" style="text;html=1;align=center;verticalAlign=middle;whiteSpace=wrap;rounded=0;fontSize=20;" vertex="1" parent="WIyWlLk6GJQsqaUBKTNV-1">
          <mxGeometry x="434" y="140" width="360" height="30" as="geometry" />
        </mxCell>
        <mxCell id="gZTQ3Ob3cSbscoctW0sQ-3" value="" style="shape=mxgraph.pid.fittings.funnel;html=1;pointerEvents=1;align=center;verticalLabelPosition=bottom;verticalAlign=top;dashed=0;rotation=-90;" vertex="1" parent="WIyWlLk6GJQsqaUBKTNV-1">
          <mxGeometry x="324" y="85" width="80" height="140" as="geometry" />
        </mxCell>
        <mxCell id="gZTQ3Ob3cSbscoctW0sQ-4" value="Merge" style="text;html=1;align=center;verticalAlign=middle;resizable=0;points=[];autosize=1;strokeColor=none;fillColor=none;" vertex="1" parent="WIyWlLk6GJQsqaUBKTNV-1">
          <mxGeometry x="344" y="125" width="60" height="30" as="geometry" />
        </mxCell>
        <mxCell id="gZTQ3Ob3cSbscoctW0sQ-5" value="" style="shape=mxgraph.pid.fittings.funnel;html=1;pointerEvents=1;align=center;verticalLabelPosition=bottom;verticalAlign=top;dashed=0;rotation=-90;" vertex="1" parent="WIyWlLk6GJQsqaUBKTNV-1">
          <mxGeometry x="324" y="265" width="80" height="140" as="geometry" />
        </mxCell>
        <mxCell id="gZTQ3Ob3cSbscoctW0sQ-6" value="Split" style="text;html=1;align=center;verticalAlign=middle;resizable=0;points=[];autosize=1;strokeColor=none;fillColor=none;" vertex="1" parent="WIyWlLk6GJQsqaUBKTNV-1">
          <mxGeometry x="349" y="295" width="50" height="30" as="geometry" />
        </mxCell>
        <mxCell id="gZTQ3Ob3cSbscoctW0sQ-9" value="" style="endArrow=classic;html=1;rounded=0;" edge="1" parent="WIyWlLk6GJQsqaUBKTNV-1">
          <mxGeometry width="50" height="50" relative="1" as="geometry">
            <mxPoint x="614" y="185" as="sourcePoint" />
            <mxPoint x="614" y="275" as="targetPoint" />
          </mxGeometry>
        </mxCell>
        <mxCell id="gZTQ3Ob3cSbscoctW0sQ-10" value="Partition" style="edgeLabel;html=1;align=center;verticalAlign=middle;resizable=0;points=[];" vertex="1" connectable="0" parent="gZTQ3Ob3cSbscoctW0sQ-9">
          <mxGeometry x="-0.2253" y="-2" relative="1" as="geometry">
            <mxPoint as="offset" />
          </mxGeometry>
        </mxCell>
        <mxCell id="gZTQ3Ob3cSbscoctW0sQ-11" value="" style="endArrow=none;html=1;rounded=0;" edge="1" parent="WIyWlLk6GJQsqaUBKTNV-1">
          <mxGeometry width="50" height="50" relative="1" as="geometry">
            <mxPoint x="177" y="385" as="sourcePoint" />
            <mxPoint x="177" y="305" as="targetPoint" />
          </mxGeometry>
        </mxCell>
        <mxCell id="gZTQ3Ob3cSbscoctW0sQ-12" value="S = [7,&amp;nbsp; 12, 14, 15]" style="text;html=1;align=center;verticalAlign=middle;whiteSpace=wrap;rounded=0;fontSize=20;" vertex="1" parent="WIyWlLk6GJQsqaUBKTNV-1">
          <mxGeometry x="102" y="315" width="190" height="30" as="geometry" />
        </mxCell>
        <mxCell id="gZTQ3Ob3cSbscoctW0sQ-13" value="B = [1, 2, 3, 4,&amp;nbsp; &amp;nbsp;9, 11]" style="text;html=1;align=center;verticalAlign=middle;whiteSpace=wrap;rounded=0;fontSize=20;" vertex="1" parent="WIyWlLk6GJQsqaUBKTNV-1">
          <mxGeometry x="24" y="345" width="236" height="30" as="geometry" />
        </mxCell>
        <mxCell id="gZTQ3Ob3cSbscoctW0sQ-14" value="LEFT" style="text;html=1;align=center;verticalAlign=middle;resizable=0;points=[];autosize=1;strokeColor=none;fillColor=none;" vertex="1" parent="WIyWlLk6GJQsqaUBKTNV-1">
          <mxGeometry x="97" y="275" width="50" height="30" as="geometry" />
        </mxCell>
        <mxCell id="gZTQ3Ob3cSbscoctW0sQ-15" value="RIGHT" style="text;html=1;align=center;verticalAlign=middle;resizable=0;points=[];autosize=1;strokeColor=none;fillColor=none;" vertex="1" parent="WIyWlLk6GJQsqaUBKTNV-1">
          <mxGeometry x="192" y="275" width="60" height="30" as="geometry" />
        </mxCell>
        <mxCell id="gZTQ3Ob3cSbscoctW0sQ-18" value="M = [1, 2, 3, 4, 7, 9, 11, 12, 14, 15]" style="text;html=1;align=center;verticalAlign=middle;whiteSpace=wrap;rounded=0;fontSize=20;" vertex="1" parent="WIyWlLk6GJQsqaUBKTNV-1">
          <mxGeometry x="434" y="320" width="360" height="30" as="geometry" />
        </mxCell>
        <mxCell id="gZTQ3Ob3cSbscoctW0sQ-19" value="" style="endArrow=none;html=1;rounded=0;" edge="1" parent="WIyWlLk6GJQsqaUBKTNV-1">
          <mxGeometry width="50" height="50" relative="1" as="geometry">
            <mxPoint x="613.66" y="375" as="sourcePoint" />
            <mxPoint x="613.66" y="295" as="targetPoint" />
          </mxGeometry>
        </mxCell>
        <mxCell id="gZTQ3Ob3cSbscoctW0sQ-20" value="" style="endArrow=classic;html=1;rounded=0;strokeWidth=0;" edge="1" parent="WIyWlLk6GJQsqaUBKTNV-1">
          <mxGeometry width="50" height="50" relative="1" as="geometry">
            <mxPoint x="370" y="154.91" as="sourcePoint" />
            <mxPoint x="439" y="154.91" as="targetPoint" />
          </mxGeometry>
        </mxCell>
        <mxCell id="gZTQ3Ob3cSbscoctW0sQ-22" value="" style="endArrow=classic;html=1;rounded=0;strokeWidth=0;" edge="1" parent="WIyWlLk6GJQsqaUBKTNV-1">
          <mxGeometry width="50" height="50" relative="1" as="geometry">
            <mxPoint x="300" y="295" as="sourcePoint" />
            <mxPoint x="288" y="295" as="targetPoint" />
          </mxGeometry>
        </mxCell>
        <mxCell id="gZTQ3Ob3cSbscoctW0sQ-24" value="" style="endArrow=classic;html=1;rounded=0;strokeWidth=0;" edge="1" parent="WIyWlLk6GJQsqaUBKTNV-1">
          <mxGeometry width="50" height="50" relative="1" as="geometry">
            <mxPoint x="300" y="375" as="sourcePoint" />
            <mxPoint x="288" y="375" as="targetPoint" />
          </mxGeometry>
        </mxCell>
        <mxCell id="gZTQ3Ob3cSbscoctW0sQ-25" value="LEFT" style="text;html=1;align=center;verticalAlign=middle;resizable=0;points=[];autosize=1;strokeColor=none;fillColor=none;" vertex="1" parent="WIyWlLk6GJQsqaUBKTNV-1">
          <mxGeometry x="536.5" y="290" width="50" height="30" as="geometry" />
        </mxCell>
        <mxCell id="gZTQ3Ob3cSbscoctW0sQ-26" value="RIGHT" style="text;html=1;align=center;verticalAlign=middle;resizable=0;points=[];autosize=1;strokeColor=none;fillColor=none;" vertex="1" parent="WIyWlLk6GJQsqaUBKTNV-1">
          <mxGeometry x="631.5" y="290" width="60" height="30" as="geometry" />
        </mxCell>
        <mxCell id="gZTQ3Ob3cSbscoctW0sQ-27" value="Median" style="text;html=1;align=center;verticalAlign=middle;resizable=0;points=[];autosize=1;strokeColor=none;fillColor=none;" vertex="1" parent="WIyWlLk6GJQsqaUBKTNV-1">
          <mxGeometry x="585.5" y="375" width="57" height="26" as="geometry" />
        </mxCell>
        <mxCell id="gZTQ3Ob3cSbscoctW0sQ-29" value="Lane Layout of Partitioning of M" style="text;whiteSpace=wrap;html=1;" vertex="1" parent="WIyWlLk6GJQsqaUBKTNV-1">
          <mxGeometry x="94" y="388" width="190" height="40" as="geometry" />
        </mxCell>
        <mxCell id="gZTQ3Ob3cSbscoctW0sQ-30" value="Iterative rotating partitions for the correct symmetry" style="text;html=1;align=center;verticalAlign=middle;resizable=0;points=[];autosize=1;strokeColor=none;fillColor=none;fontStyle=1" vertex="1" parent="WIyWlLk6GJQsqaUBKTNV-1">
          <mxGeometry x="90.5" y="522" width="290" height="30" as="geometry" />
        </mxCell>
        <mxCell id="gZTQ3Ob3cSbscoctW0sQ-65" value="" style="group" vertex="1" connectable="0" parent="WIyWlLk6GJQsqaUBKTNV-1">
          <mxGeometry x="458.5" y="770" width="276" height="153" as="geometry" />
        </mxCell>
        <mxCell id="gZTQ3Ob3cSbscoctW0sQ-66" value="" style="endArrow=none;html=1;rounded=0;" edge="1" parent="gZTQ3Ob3cSbscoctW0sQ-65">
          <mxGeometry width="50" height="50" relative="1" as="geometry">
            <mxPoint x="153" y="110" as="sourcePoint" />
            <mxPoint x="153" y="30" as="targetPoint" />
          </mxGeometry>
        </mxCell>
        <mxCell id="gZTQ3Ob3cSbscoctW0sQ-67" value="S = [7,&amp;nbsp; 12, 14, 15]" style="text;html=1;align=center;verticalAlign=middle;whiteSpace=wrap;rounded=0;fontSize=20;" vertex="1" parent="gZTQ3Ob3cSbscoctW0sQ-65">
          <mxGeometry x="78" y="40" width="190" height="30" as="geometry" />
        </mxCell>
        <mxCell id="gZTQ3Ob3cSbscoctW0sQ-68" value="B = [1, 2, 3, 4,&amp;nbsp; &amp;nbsp;9, 11]" style="text;html=1;align=center;verticalAlign=middle;whiteSpace=wrap;rounded=0;fontSize=20;" vertex="1" parent="gZTQ3Ob3cSbscoctW0sQ-65">
          <mxGeometry y="70" width="236" height="30" as="geometry" />
        </mxCell>
        <mxCell id="gZTQ3Ob3cSbscoctW0sQ-69" value="LEFT" style="text;html=1;align=center;verticalAlign=middle;resizable=0;points=[];autosize=1;strokeColor=none;fillColor=none;" vertex="1" parent="gZTQ3Ob3cSbscoctW0sQ-65">
          <mxGeometry x="73" width="50" height="30" as="geometry" />
        </mxCell>
        <mxCell id="gZTQ3Ob3cSbscoctW0sQ-70" value="RIGHT" style="text;html=1;align=center;verticalAlign=middle;resizable=0;points=[];autosize=1;strokeColor=none;fillColor=none;" vertex="1" parent="gZTQ3Ob3cSbscoctW0sQ-65">
          <mxGeometry x="168" width="60" height="30" as="geometry" />
        </mxCell>
        <mxCell id="gZTQ3Ob3cSbscoctW0sQ-71" value="Lane Layout of Partitioning of M" style="text;whiteSpace=wrap;html=1;" vertex="1" parent="gZTQ3Ob3cSbscoctW0sQ-65">
          <mxGeometry x="70" y="113" width="190" height="40" as="geometry" />
        </mxCell>
        <mxCell id="gZTQ3Ob3cSbscoctW0sQ-54" value="" style="endArrow=none;html=1;rounded=0;" edge="1" parent="WIyWlLk6GJQsqaUBKTNV-1">
          <mxGeometry width="50" height="50" relative="1" as="geometry">
            <mxPoint x="608.5" y="700" as="sourcePoint" />
            <mxPoint x="608.5" y="620" as="targetPoint" />
          </mxGeometry>
        </mxCell>
        <mxCell id="gZTQ3Ob3cSbscoctW0sQ-55" value="S = [7, 12,&amp;nbsp; 14, 15]" style="text;html=1;align=center;verticalAlign=middle;whiteSpace=wrap;rounded=0;fontSize=20;" vertex="1" parent="WIyWlLk6GJQsqaUBKTNV-1">
          <mxGeometry x="500.5" y="630" width="188" height="30" as="geometry" />
        </mxCell>
        <mxCell id="gZTQ3Ob3cSbscoctW0sQ-57" value="B = [1, 2, 3,&amp;nbsp; 4,&amp;nbsp; 9, 11]" style="text;html=1;align=center;verticalAlign=middle;whiteSpace=wrap;rounded=0;fontSize=20;" vertex="1" parent="WIyWlLk6GJQsqaUBKTNV-1">
          <mxGeometry x="478.5" y="660" width="236" height="30" as="geometry" />
        </mxCell>
        <mxCell id="gZTQ3Ob3cSbscoctW0sQ-58" value="LEFT" style="text;html=1;align=center;verticalAlign=middle;resizable=0;points=[];autosize=1;strokeColor=none;fillColor=none;" vertex="1" parent="WIyWlLk6GJQsqaUBKTNV-1">
          <mxGeometry x="528.5" y="590" width="50" height="30" as="geometry" />
        </mxCell>
        <mxCell id="gZTQ3Ob3cSbscoctW0sQ-59" value="RIGHT" style="text;html=1;align=center;verticalAlign=middle;resizable=0;points=[];autosize=1;strokeColor=none;fillColor=none;" vertex="1" parent="WIyWlLk6GJQsqaUBKTNV-1">
          <mxGeometry x="623.5" y="590" width="60" height="30" as="geometry" />
        </mxCell>
        <mxCell id="gZTQ3Ob3cSbscoctW0sQ-62" value="Lane Layout of Partitioning of M" style="text;whiteSpace=wrap;html=1;" vertex="1" parent="WIyWlLk6GJQsqaUBKTNV-1">
          <mxGeometry x="524.5" y="710" width="190" height="40" as="geometry" />
        </mxCell>
        <mxCell id="gZTQ3Ob3cSbscoctW0sQ-73" value="" style="endArrow=none;html=1;rounded=0;" edge="1" parent="WIyWlLk6GJQsqaUBKTNV-1">
          <mxGeometry width="50" height="50" relative="1" as="geometry">
            <mxPoint x="621.5" y="1050" as="sourcePoint" />
            <mxPoint x="621.5" y="970" as="targetPoint" />
          </mxGeometry>
        </mxCell>
        <mxCell id="gZTQ3Ob3cSbscoctW0sQ-74" value="S =&amp;nbsp; [7, 12, 14, 15]" style="text;html=1;align=center;verticalAlign=middle;whiteSpace=wrap;rounded=0;fontSize=20;" vertex="1" parent="WIyWlLk6GJQsqaUBKTNV-1">
          <mxGeometry x="573.5" y="980" width="190" height="30" as="geometry" />
        </mxCell>
        <mxCell id="gZTQ3Ob3cSbscoctW0sQ-75" value="B = [1, 2, 3, 4, 9, 11]" style="text;html=1;align=center;verticalAlign=middle;whiteSpace=wrap;rounded=0;fontSize=20;" vertex="1" parent="WIyWlLk6GJQsqaUBKTNV-1">
          <mxGeometry x="441.5" y="1010" width="236" height="30" as="geometry" />
        </mxCell>
        <mxCell id="gZTQ3Ob3cSbscoctW0sQ-76" value="LEFT" style="text;html=1;align=center;verticalAlign=middle;resizable=0;points=[];autosize=1;strokeColor=none;fillColor=none;" vertex="1" parent="WIyWlLk6GJQsqaUBKTNV-1">
          <mxGeometry x="541.5" y="940" width="50" height="30" as="geometry" />
        </mxCell>
        <mxCell id="gZTQ3Ob3cSbscoctW0sQ-77" value="RIGHT" style="text;html=1;align=center;verticalAlign=middle;resizable=0;points=[];autosize=1;strokeColor=none;fillColor=none;" vertex="1" parent="WIyWlLk6GJQsqaUBKTNV-1">
          <mxGeometry x="636.5" y="940" width="60" height="30" as="geometry" />
        </mxCell>
        <mxCell id="gZTQ3Ob3cSbscoctW0sQ-78" value="Lane Layout of Partitioning of M" style="text;whiteSpace=wrap;html=1;" vertex="1" parent="WIyWlLk6GJQsqaUBKTNV-1">
          <mxGeometry x="535.5" y="1059" width="190" height="40" as="geometry" />
        </mxCell>
        <mxCell id="gZTQ3Ob3cSbscoctW0sQ-79" value="" style="endArrow=classic;html=1;rounded=0;" edge="1" parent="WIyWlLk6GJQsqaUBKTNV-1">
          <mxGeometry width="50" height="50" relative="1" as="geometry">
            <mxPoint x="590.5" y="1053" as="sourcePoint" />
            <mxPoint x="650.5" y="1053" as="targetPoint" />
          </mxGeometry>
        </mxCell>
        <mxCell id="gZTQ3Ob3cSbscoctW0sQ-80" value="" style="endArrow=classic;html=1;rounded=0;" edge="1" parent="WIyWlLk6GJQsqaUBKTNV-1">
          <mxGeometry width="50" height="50" relative="1" as="geometry">
            <mxPoint x="645.5" y="964" as="sourcePoint" />
            <mxPoint x="585.5" y="964" as="targetPoint" />
          </mxGeometry>
        </mxCell>
        <mxCell id="gZTQ3Ob3cSbscoctW0sQ-81" value="" style="endArrow=classic;html=1;rounded=0;" edge="1" parent="WIyWlLk6GJQsqaUBKTNV-1">
          <mxGeometry width="50" height="50" relative="1" as="geometry">
            <mxPoint x="580.5" y="616" as="sourcePoint" />
            <mxPoint x="640.5" y="616" as="targetPoint" />
          </mxGeometry>
        </mxCell>
        <mxCell id="gZTQ3Ob3cSbscoctW0sQ-82" value="" style="endArrow=classic;html=1;rounded=0;" edge="1" parent="WIyWlLk6GJQsqaUBKTNV-1">
          <mxGeometry width="50" height="50" relative="1" as="geometry">
            <mxPoint x="640.5" y="706" as="sourcePoint" />
            <mxPoint x="580.5" y="706" as="targetPoint" />
          </mxGeometry>
        </mxCell>
        <mxCell id="gZTQ3Ob3cSbscoctW0sQ-83" value="IF max(S in Left) &amp;gt; min(B in right),&lt;div&gt;clockwise rotation of lanes.&lt;/div&gt;" style="text;html=1;align=center;verticalAlign=middle;resizable=0;points=[];autosize=1;strokeColor=none;fillColor=none;" vertex="1" parent="WIyWlLk6GJQsqaUBKTNV-1">
          <mxGeometry x="189.5" y="640" width="198" height="41" as="geometry" />
        </mxCell>
        <mxCell id="gZTQ3Ob3cSbscoctW0sQ-84" value="IF max(B in Left) &amp;gt; min(S in right),&lt;div&gt;counter-clockwise rotation of lanes.&lt;/div&gt;" style="text;html=1;align=center;verticalAlign=middle;resizable=0;points=[];autosize=1;strokeColor=none;fillColor=none;" vertex="1" parent="WIyWlLk6GJQsqaUBKTNV-1">
          <mxGeometry x="186" y="1004.5" width="205" height="41" as="geometry" />
        </mxCell>
        <mxCell id="gZTQ3Ob3cSbscoctW0sQ-85" value="Correct SLCount!&lt;div&gt;Correct Partitioning!&lt;/div&gt;" style="text;html=1;align=center;verticalAlign=middle;resizable=0;points=[];autosize=1;strokeColor=none;fillColor=none;" vertex="1" parent="WIyWlLk6GJQsqaUBKTNV-1">
          <mxGeometry x="213.5" y="826" width="124" height="41" as="geometry" />
        </mxCell>
        <mxCell id="gZTQ3Ob3cSbscoctW0sQ-86" value="I" style="text;html=1;align=center;verticalAlign=middle;resizable=0;points=[];autosize=1;strokeColor=none;fillColor=none;fontStyle=1;fontSize=20;" vertex="1" parent="WIyWlLk6GJQsqaUBKTNV-1">
          <mxGeometry x="69.5" y="640" width="24" height="36" as="geometry" />
        </mxCell>
        <mxCell id="gZTQ3Ob3cSbscoctW0sQ-87" value="II" style="text;html=1;align=center;verticalAlign=middle;resizable=0;points=[];autosize=1;strokeColor=none;fillColor=none;fontStyle=1;fontSize=20;" vertex="1" parent="WIyWlLk6GJQsqaUBKTNV-1">
          <mxGeometry x="67" y="828.5" width="29" height="36" as="geometry" />
        </mxCell>
        <mxCell id="gZTQ3Ob3cSbscoctW0sQ-88" value="III" style="text;html=1;align=center;verticalAlign=middle;resizable=0;points=[];autosize=1;strokeColor=none;fillColor=none;fontStyle=1;fontSize=20;" vertex="1" parent="WIyWlLk6GJQsqaUBKTNV-1">
          <mxGeometry x="64" y="1002" width="35" height="36" as="geometry" />
        </mxCell>
        <mxCell id="gZTQ3Ob3cSbscoctW0sQ-89" value="" style="endArrow=classic;html=1;rounded=0;" edge="1" parent="WIyWlLk6GJQsqaUBKTNV-1">
          <mxGeometry width="50" height="50" relative="1" as="geometry">
            <mxPoint x="265.5" y="722" as="sourcePoint" />
            <mxPoint x="265.5" y="802" as="targetPoint" />
          </mxGeometry>
        </mxCell>
        <mxCell id="gZTQ3Ob3cSbscoctW0sQ-93" value="Binary Search" style="edgeLabel;html=1;align=center;verticalAlign=middle;resizable=0;points=[];" vertex="1" connectable="0" parent="gZTQ3Ob3cSbscoctW0sQ-89">
          <mxGeometry x="0.0042" y="1" relative="1" as="geometry">
            <mxPoint as="offset" />
          </mxGeometry>
        </mxCell>
        <mxCell id="gZTQ3Ob3cSbscoctW0sQ-91" value="" style="endArrow=classic;html=1;rounded=0;" edge="1" parent="WIyWlLk6GJQsqaUBKTNV-1">
          <mxGeometry width="50" height="50" relative="1" as="geometry">
            <mxPoint x="266.67" y="988" as="sourcePoint" />
            <mxPoint x="266.5" y="914" as="targetPoint" />
          </mxGeometry>
        </mxCell>
        <mxCell id="gZTQ3Ob3cSbscoctW0sQ-92" value="Binary Search" style="edgeLabel;html=1;align=center;verticalAlign=middle;resizable=0;points=[];" vertex="1" connectable="0" parent="gZTQ3Ob3cSbscoctW0sQ-91">
          <mxGeometry x="-0.2568" relative="1" as="geometry">
            <mxPoint as="offset" />
          </mxGeometry>
        </mxCell>
        <mxCell id="gZTQ3Ob3cSbscoctW0sQ-94" value="Median of Two Sorted Lists S and B" style="text;html=1;align=center;verticalAlign=middle;resizable=0;points=[];autosize=1;strokeColor=none;fillColor=none;fontStyle=1;fontSize=20;" vertex="1" parent="WIyWlLk6GJQsqaUBKTNV-1">
          <mxGeometry x="232" y="26" width="336" height="36" as="geometry" />
        </mxCell>
      </root>
    </mxGraphModel>
  </diagram>
</mxfile>
